<svg width="49" height="48" viewBox="0 0 49 48" fill="none" xmlns="http://www.w3.org/2000/svg">
<g clip-path="url(#clip0_1_3351)">
<path d="M0.159912 47H48.1599" stroke="#262B35" stroke-width="2" stroke-linejoin="round"/>
<path d="M7.15991 27H17.1599" stroke="#262B35" stroke-width="2" stroke-linejoin="round"/>
<path d="M7.15991 32H17.1599" stroke="#262B35" stroke-width="2" stroke-linejoin="round"/>
<path d="M7.15991 37H17.1599" stroke="#262B35" stroke-width="2" stroke-linejoin="round"/>
<path d="M7.15991 42H17.1599" stroke="#262B35" stroke-width="2" stroke-linejoin="round"/>
<path d="M7.15991 22H17.1599" stroke="#262B35" stroke-width="2" stroke-linejoin="round"/>
<path d="M7.15991 17H17.1599" stroke="#262B35" stroke-width="2" stroke-linejoin="round"/>
<path d="M7.15991 12H17.1599" stroke="#262B35" stroke-width="2" stroke-linejoin="round"/>
<path d="M7.15991 7H17.1599" stroke="#262B35" stroke-width="2" stroke-linejoin="round"/>
<path d="M20.1599 1H4.15991V47H20.1599V1Z" stroke="#262B35" stroke-width="2" stroke-linejoin="round"/>
<path d="M2.15991 1H22.1599" stroke="#262B35" stroke-width="2" stroke-linejoin="round"/>
<path d="M23.1599 27H25.1599" stroke="#262B35" stroke-width="2" stroke-linejoin="round"/>
<path d="M23.1599 32H25.1599" stroke="#262B35" stroke-width="2" stroke-linejoin="round"/>
<path d="M23.1599 37H25.1599" stroke="#262B35" stroke-width="2" stroke-linejoin="round"/>
<path d="M23.1599 42H25.1599" stroke="#262B35" stroke-width="2" stroke-linejoin="round"/>
<path d="M23.1599 22H25.1599" stroke="#262B35" stroke-width="2" stroke-linejoin="round"/>
<path d="M27.1599 27H29.1599" stroke="#262B35" stroke-width="2" stroke-linejoin="round"/>
<path d="M27.1599 32H29.1599" stroke="#262B35" stroke-width="2" stroke-linejoin="round"/>
<path d="M27.1599 37H29.1599" stroke="#262B35" stroke-width="2" stroke-linejoin="round"/>
<path d="M27.1599 42H29.1599" stroke="#262B35" stroke-width="2" stroke-linejoin="round"/>
<path d="M27.1599 22H29.1599" stroke="#262B35" stroke-width="2" stroke-linejoin="round"/>
<path d="M32.1599 47V7" stroke="#262B35" stroke-width="2" stroke-linejoin="round"/>
<path d="M20.1599 17H32.1599" stroke="#262B35" stroke-width="2" stroke-linejoin="round"/>
<path d="M35.1599 27H37.1599" stroke="#262B35" stroke-width="2" stroke-linejoin="round"/>
<path d="M35.1599 32H37.1599" stroke="#262B35" stroke-width="2" stroke-linejoin="round"/>
<path d="M35.1599 37H37.1599" stroke="#262B35" stroke-width="2" stroke-linejoin="round"/>
<path d="M35.1599 42H37.1599" stroke="#262B35" stroke-width="2" stroke-linejoin="round"/>
<path d="M35.1599 22H37.1599" stroke="#262B35" stroke-width="2" stroke-linejoin="round"/>
<path d="M35.1599 17H37.1599" stroke="#262B35" stroke-width="2" stroke-linejoin="round"/>
<path d="M39.1599 27H41.1599" stroke="#262B35" stroke-width="2" stroke-linejoin="round"/>
<path d="M39.1599 32H41.1599" stroke="#262B35" stroke-width="2" stroke-linejoin="round"/>
<path d="M39.1599 37H41.1599" stroke="#262B35" stroke-width="2" stroke-linejoin="round"/>
<path d="M39.1599 42H41.1599" stroke="#262B35" stroke-width="2" stroke-linejoin="round"/>
<path d="M39.1599 22H41.1599" stroke="#262B35" stroke-width="2" stroke-linejoin="round"/>
<path d="M39.1599 17H41.1599" stroke="#262B35" stroke-width="2" stroke-linejoin="round"/>
<path d="M35.1599 12H37.1599" stroke="#262B35" stroke-width="2" stroke-linejoin="round"/>
<path d="M39.1599 12H41.1599" stroke="#262B35" stroke-width="2" stroke-linejoin="round"/>
<path d="M44.1599 47V7" stroke="#262B35" stroke-width="2" stroke-linejoin="round"/>
<path d="M30.1599 7H46.1599" stroke="#262B35" stroke-width="2" stroke-linejoin="round"/>
</g>
<defs>
<clipPath id="clip0_1_3351">
<rect width="48" height="48" fill="white" transform="translate(0.159912)"/>
</clipPath>
</defs>
</svg>
