<svg width="124" height="31" viewBox="0 0 124 31" fill="none" xmlns="http://www.w3.org/2000/svg">
<g clip-path="url(#clip0_1_4244)">
<path d="M33.0256 10.9014H45.3872V13.2026H40.5199V26.1751H37.8521V13.2026H33.0052L33.0256 10.9014ZM44.8577 15.1169H47.1386V17.2552H47.1793C47.2673 16.9397 47.4122 16.6429 47.607 16.3796C47.8151 16.0829 48.0695 15.8216 48.3605 15.6057C48.6514 15.3613 48.982 15.1684 49.338 15.0355C49.6797 14.8911 50.0464 14.815 50.4173 14.8114C50.7024 14.8114 50.9061 14.8318 51.0079 14.8318C51.115 14.8554 51.2241 14.869 51.3337 14.8725V17.2145C51.1592 17.1759 50.9823 17.1487 50.8043 17.1331C50.6287 17.1094 50.4519 17.0958 50.2748 17.0923C49.8749 17.0908 49.4793 17.174 49.114 17.3367C48.7496 17.5064 48.4238 17.749 48.1568 18.0495C47.872 18.4019 47.6514 18.8017 47.5051 19.2307C47.3339 19.7564 47.2513 20.307 47.2607 20.8599V26.114H44.8169L44.8577 15.1169ZM62.5345 26.1751H60.1314V24.6274H60.0907C59.779 25.1937 59.3129 25.6598 58.7466 25.9715C58.1993 26.3013 57.5731 26.4772 56.9341 26.4806C55.4882 26.4806 54.4292 26.1344 53.7775 25.4012C53.1259 24.6885 52.8 23.5888 52.8 22.1428V15.1169H55.2438V21.8985C55.2438 22.876 55.4271 23.5684 55.814 23.9553C56.1806 24.3626 56.7101 24.5663 57.3822 24.5663C57.8226 24.5799 58.2606 24.4965 58.6651 24.3219C58.99 24.1813 59.2763 23.9648 59.5001 23.6906C59.7238 23.4093 59.8837 23.0827 59.9685 22.7334C60.0696 22.3411 60.1176 21.937 60.1111 21.5319V15.1169H62.5549V26.1751H62.5345ZM66.689 22.6316C66.7704 23.3444 67.0352 23.8331 67.5036 24.1386C68.0167 24.4345 68.6017 24.5826 69.1939 24.5663C69.4529 24.5638 69.7115 24.5434 69.9677 24.5052C70.2466 24.4711 70.5202 24.4027 70.7823 24.3015C71.0299 24.2129 71.2483 24.0579 71.4136 23.8535C71.5837 23.6412 71.6641 23.3708 71.6376 23.1C71.6342 22.9545 71.6019 22.8111 71.5424 22.6782C71.483 22.5454 71.3977 22.4257 71.2915 22.3261C71.0488 22.1193 70.7735 21.9542 70.4768 21.8374C70.1059 21.7039 69.7244 21.6017 69.3364 21.5319C68.9087 21.4504 68.4811 21.3486 68.0331 21.2468C67.585 21.145 67.137 21.0228 66.7093 20.8802C66.2984 20.7496 65.9127 20.5499 65.5689 20.2896C65.2315 20.047 64.9588 19.7254 64.7746 19.3528C64.5576 18.9171 64.4526 18.4342 64.4692 17.9477C64.4457 17.4093 64.6035 16.8787 64.9172 16.4406C65.21 16.0326 65.5934 15.698 66.0373 15.4631C66.5086 15.2083 67.0172 15.0296 67.5443 14.9336C68.0616 14.8384 68.5864 14.7907 69.1124 14.7911C69.6608 14.7882 70.2076 14.8497 70.7416 14.9744C71.2427 15.0821 71.7192 15.2824 72.1468 15.565C72.5705 15.8325 72.9261 16.1951 73.1854 16.6239C73.479 17.0995 73.6602 17.6358 73.7149 18.192H71.1693C71.0471 17.6014 70.7823 17.2145 70.375 17.0109C69.9226 16.8004 69.428 16.6959 68.9291 16.7054C68.7662 16.7054 68.5422 16.7258 68.3182 16.7461C68.0894 16.7787 67.8644 16.8333 67.6461 16.909C67.4482 16.9879 67.2682 17.1056 67.1166 17.2552C67.0418 17.3338 66.9835 17.4265 66.945 17.5279C66.9066 17.6294 66.8887 17.7374 66.8926 17.8458C66.8869 17.9799 66.9114 18.1136 66.9642 18.237C67.0171 18.3603 67.097 18.4703 67.1981 18.5586C67.4409 18.76 67.7164 18.9184 68.0127 19.027C68.3836 19.1605 68.7651 19.2627 69.1531 19.3325C69.5808 19.4139 70.0288 19.5158 70.4768 19.6176C70.9249 19.7194 71.3525 19.8416 71.7802 19.9842C72.193 20.1104 72.5794 20.3105 72.9206 20.5747C73.2536 20.8195 73.5312 21.1318 73.7352 21.4912C73.9502 21.9131 74.0553 22.3823 74.0407 22.8556C74.0604 23.4444 73.9044 24.0257 73.5927 24.5256C73.2902 24.9775 72.8944 25.3594 72.4319 25.6456C71.9368 25.9339 71.4014 26.1467 70.8434 26.2769C70.2749 26.4037 69.6948 26.472 69.1124 26.4806C68.4595 26.4861 67.8088 26.4039 67.1777 26.2362C66.6243 26.0903 66.1006 25.8491 65.63 25.5234C65.2017 25.2076 64.853 24.7962 64.6117 24.3219C64.3483 23.7898 64.209 23.2049 64.2044 22.6112H66.6686V22.6316H66.689ZM74.7331 15.1169H76.5863V11.7771H79.0301V15.0966H81.2296V16.909H79.0301V22.8149C79.0317 23.0395 79.0453 23.2638 79.0709 23.4869C79.0907 23.6502 79.139 23.8087 79.2134 23.9553C79.2991 24.0816 79.4193 24.1806 79.5596 24.2404C79.7688 24.3139 79.9897 24.3484 80.2113 24.3423C80.3813 24.3457 80.5513 24.3389 80.7204 24.3219C80.8916 24.3047 81.0616 24.2775 81.2296 24.2404V26.1344C80.9648 26.1751 80.7001 26.1955 80.4353 26.2158C80.1721 26.2502 79.9065 26.2639 79.6411 26.2566C79.1189 26.2726 78.5973 26.2109 78.0934 26.0733C77.7497 25.9731 77.4353 25.7915 77.1769 25.5438C76.9531 25.2965 76.7985 24.9944 76.7289 24.6681C76.6454 24.2658 76.5977 23.8569 76.5863 23.4462V16.9294H74.7331V15.1169ZM82.9402 15.1169H85.2415V16.6239H85.2822C85.5879 16.0149 86.0902 15.527 86.7077 15.2391C87.3328 14.9495 88.0147 14.8033 88.7035 14.8114C89.49 14.7866 90.2713 14.947 90.9844 15.2798C91.6148 15.5645 92.1669 15.9978 92.5932 16.5425C93.0351 17.0963 93.3606 17.7335 93.5504 18.4161C93.9705 19.8642 93.9846 21.4 93.5911 22.8556C93.4078 23.5191 93.1116 24.146 92.7154 24.7088C92.3246 25.2446 91.816 25.6836 91.2288 25.9918C90.5748 26.3295 89.8466 26.4976 89.1108 26.4806C88.7556 26.477 88.4013 26.4429 88.0518 26.3788C87.7016 26.3175 87.3598 26.2149 87.0336 26.0733C86.71 25.9342 86.4081 25.749 86.1375 25.5234C85.8649 25.3062 85.6308 25.0446 85.4451 24.7496H85.4044V30.2685H82.9606V15.1169H82.9402ZM91.4732 20.6562C91.477 20.1668 91.4083 19.6796 91.2695 19.2103C91.1523 18.7628 90.9519 18.3414 90.6789 17.968C90.4218 17.6149 90.0963 17.3171 89.7218 17.0923C89.3173 16.8681 88.8604 16.7557 88.398 16.7665C87.3798 16.7665 86.6059 17.1127 86.0764 17.8255C85.5673 18.5382 85.3026 19.4954 85.3026 20.6766C85.2933 21.1997 85.3619 21.7213 85.5062 22.2243C85.6263 22.6683 85.834 23.0837 86.1172 23.4462C86.3789 23.7865 86.7127 24.0647 87.0947 24.2608C87.5036 24.4713 87.9586 24.5763 88.4184 24.5663C88.9095 24.5805 89.3953 24.4608 89.8236 24.2201C90.1977 23.9948 90.5231 23.6971 90.7808 23.3444C91.0344 22.9676 91.2141 22.546 91.3102 22.1021C91.4147 21.6271 91.4693 21.1425 91.4732 20.6562ZM95.7702 10.9014H98.214V13.2026H95.7702V10.9014ZM95.7702 15.1169H98.214V26.1751H95.7702V15.1169ZM100.393 10.9014H102.837V26.1751H100.393V10.9014ZM110.29 26.4806C109.48 26.4973 108.676 26.3447 107.928 26.0326C107.27 25.7528 106.675 25.3443 106.177 24.831C105.693 24.2945 105.325 23.6635 105.097 22.9778C104.84 22.2238 104.71 21.4325 104.71 20.6358C104.7 19.8451 104.831 19.0587 105.097 18.3142C105.33 17.6307 105.697 17.0006 106.177 16.461C106.665 15.9369 107.263 15.5267 107.928 15.2595C108.679 14.9569 109.481 14.8047 110.29 14.8114C111.1 14.7947 111.905 14.9473 112.653 15.2595C113.315 15.5318 113.912 15.9413 114.404 16.461C114.888 16.9976 115.256 17.6286 115.483 18.3142C115.74 19.0612 115.871 19.8459 115.87 20.6358C115.883 21.4334 115.752 22.2267 115.483 22.9778C115.243 23.6576 114.877 24.2863 114.404 24.831C113.916 25.3552 113.318 25.7654 112.653 26.0326C111.903 26.337 111.1 26.4893 110.29 26.4806ZM110.29 24.5459C110.781 24.5549 111.265 24.4355 111.696 24.1997C112.085 23.9791 112.42 23.6727 112.673 23.3037C112.936 22.927 113.129 22.5063 113.243 22.0614C113.488 21.1336 113.488 20.1584 113.243 19.2307C113.133 18.7844 112.94 18.3629 112.673 17.9884C112.414 17.6299 112.08 17.3313 111.696 17.1127C111.264 16.8793 110.781 16.7601 110.29 16.7665C109.8 16.7575 109.315 16.8769 108.885 17.1127C108.501 17.332 108.168 17.6305 107.908 17.9884C107.641 18.3629 107.448 18.7844 107.337 19.2307C107.093 20.1584 107.093 21.1336 107.337 22.0614C107.448 22.5077 107.641 22.9291 107.908 23.3037C108.166 23.6681 108.5 23.9736 108.885 24.1997C109.313 24.4424 109.799 24.5622 110.29 24.5459ZM116.604 15.1169H118.457V11.7771H120.901V15.0966H123.1V16.909H120.901V22.8149C120.902 23.0395 120.916 23.2638 120.941 23.4869C120.961 23.6502 121.009 23.8087 121.084 23.9553C121.17 24.0816 121.29 24.1806 121.43 24.2404C121.639 24.3139 121.86 24.3484 122.082 24.3423C122.252 24.3457 122.422 24.3389 122.591 24.3219C122.762 24.3047 122.932 24.2775 123.1 24.2404V26.1344C122.835 26.1751 122.571 26.1955 122.306 26.2158C122.043 26.2502 121.777 26.2639 121.512 26.2566C120.989 26.2726 120.468 26.2109 119.964 26.0733C119.62 25.9731 119.306 25.7915 119.047 25.5438C118.824 25.2965 118.669 24.9944 118.599 24.6681C118.516 24.2658 118.468 23.8569 118.457 23.4462V16.9294H116.604V15.1169Z" fill="white"/>
<path d="M30.1745 10.9015H18.9942L15.5525 0.270996L12.0904 10.9015L0.910034 10.8812L9.95209 17.4591L6.49004 28.0896L15.5321 21.5117L24.5742 28.0896L21.1325 17.4591L30.1745 10.9015Z" fill="white"/>
<path d="M21.9064 19.8621L21.1325 17.459L15.5525 21.5116L21.9064 19.8621Z" fill="white"/>
</g>
<defs>
<clipPath id="clip0_1_4244">
<rect width="122.19" height="29.9976" fill="white" transform="translate(0.910034 0.270996)"/>
</clipPath>
</defs>
</svg>
