<svg width="49" height="48" viewBox="0 0 49 48" fill="none" xmlns="http://www.w3.org/2000/svg">
<g clip-path="url(#clip0_1_3241)">
<path d="M0.180054 47H48.1801" stroke="#262B35" stroke-width="2" stroke-linejoin="round"/>
<path d="M6.18005 27H8.18005" stroke="#262B35" stroke-width="2" stroke-linejoin="round"/>
<path d="M6.18005 32H8.18005" stroke="#262B35" stroke-width="2" stroke-linejoin="round"/>
<path d="M6.18005 37H8.18005" stroke="#262B35" stroke-width="2" stroke-linejoin="round"/>
<path d="M6.18005 42H8.18005" stroke="#262B35" stroke-width="2" stroke-linejoin="round"/>
<path d="M6.18005 22H8.18005" stroke="#262B35" stroke-width="2" stroke-linejoin="round"/>
<path d="M10.1801 27H12.1801" stroke="#262B35" stroke-width="2" stroke-linejoin="round"/>
<path d="M10.1801 32H12.1801" stroke="#262B35" stroke-width="2" stroke-linejoin="round"/>
<path d="M10.1801 37H12.1801" stroke="#262B35" stroke-width="2" stroke-linejoin="round"/>
<path d="M10.1801 42H12.1801" stroke="#262B35" stroke-width="2" stroke-linejoin="round"/>
<path d="M10.1801 22H12.1801" stroke="#262B35" stroke-width="2" stroke-linejoin="round"/>
<path d="M6.18005 17H8.18005" stroke="#262B35" stroke-width="2" stroke-linejoin="round"/>
<path d="M10.1801 17H12.1801" stroke="#262B35" stroke-width="2" stroke-linejoin="round"/>
<path d="M18.1801 27H20.1801" stroke="#262B35" stroke-width="2" stroke-linejoin="round"/>
<path d="M18.1801 32H20.1801" stroke="#262B35" stroke-width="2" stroke-linejoin="round"/>
<path d="M18.1801 37H20.1801" stroke="#262B35" stroke-width="2" stroke-linejoin="round"/>
<path d="M18.1801 42H20.1801" stroke="#262B35" stroke-width="2" stroke-linejoin="round"/>
<path d="M18.1801 22H20.1801" stroke="#262B35" stroke-width="2" stroke-linejoin="round"/>
<path d="M22.1801 27H26.1801" stroke="#262B35" stroke-width="2" stroke-linejoin="round"/>
<path d="M22.1801 32H26.1801" stroke="#262B35" stroke-width="2" stroke-linejoin="round"/>
<path d="M22.1801 37H26.1801" stroke="#262B35" stroke-width="2" stroke-linejoin="round"/>
<path d="M22.1801 42H26.1801" stroke="#262B35" stroke-width="2" stroke-linejoin="round"/>
<path d="M22.1801 22H26.1801" stroke="#262B35" stroke-width="2" stroke-linejoin="round"/>
<path d="M18.1801 17H20.1801" stroke="#262B35" stroke-width="2" stroke-linejoin="round"/>
<path d="M22.1801 17H26.1801" stroke="#262B35" stroke-width="2" stroke-linejoin="round"/>
<path d="M28.1801 27H30.1801" stroke="#262B35" stroke-width="2" stroke-linejoin="round"/>
<path d="M28.1801 32H30.1801" stroke="#262B35" stroke-width="2" stroke-linejoin="round"/>
<path d="M28.1801 37H30.1801" stroke="#262B35" stroke-width="2" stroke-linejoin="round"/>
<path d="M28.1801 42H30.1801" stroke="#262B35" stroke-width="2" stroke-linejoin="round"/>
<path d="M28.1801 22H30.1801" stroke="#262B35" stroke-width="2" stroke-linejoin="round"/>
<path d="M28.1801 17H30.1801" stroke="#262B35" stroke-width="2" stroke-linejoin="round"/>
<path d="M18.1801 12H20.1801" stroke="#262B35" stroke-width="2" stroke-linejoin="round"/>
<path d="M22.1801 12H26.1801" stroke="#262B35" stroke-width="2" stroke-linejoin="round"/>
<path d="M28.1801 12H30.1801" stroke="#262B35" stroke-width="2" stroke-linejoin="round"/>
<path d="M18.1801 7H20.1801" stroke="#262B35" stroke-width="2" stroke-linejoin="round"/>
<path d="M22.1801 7H26.1801" stroke="#262B35" stroke-width="2" stroke-linejoin="round"/>
<path d="M28.1801 7H30.1801" stroke="#262B35" stroke-width="2" stroke-linejoin="round"/>
<path d="M36.1801 27H38.1801" stroke="#262B35" stroke-width="2" stroke-linejoin="round"/>
<path d="M36.1801 32H38.1801" stroke="#262B35" stroke-width="2" stroke-linejoin="round"/>
<path d="M36.1801 37H38.1801" stroke="#262B35" stroke-width="2" stroke-linejoin="round"/>
<path d="M36.1801 42H38.1801" stroke="#262B35" stroke-width="2" stroke-linejoin="round"/>
<path d="M36.1801 22H38.1801" stroke="#262B35" stroke-width="2" stroke-linejoin="round"/>
<path d="M40.1801 27H42.1801" stroke="#262B35" stroke-width="2" stroke-linejoin="round"/>
<path d="M40.1801 32H42.1801" stroke="#262B35" stroke-width="2" stroke-linejoin="round"/>
<path d="M40.1801 37H42.1801" stroke="#262B35" stroke-width="2" stroke-linejoin="round"/>
<path d="M40.1801 42H42.1801" stroke="#262B35" stroke-width="2" stroke-linejoin="round"/>
<path d="M40.1801 22H42.1801" stroke="#262B35" stroke-width="2" stroke-linejoin="round"/>
<path d="M36.1801 17H38.1801" stroke="#262B35" stroke-width="2" stroke-linejoin="round"/>
<path d="M40.1801 17H42.1801" stroke="#262B35" stroke-width="2" stroke-linejoin="round"/>
<path d="M1.18005 12H14.1801" stroke="#262B35" stroke-width="2" stroke-linejoin="round"/>
<path d="M34.1801 12H47.1801" stroke="#262B35" stroke-width="2" stroke-linejoin="round"/>
<path d="M33.1801 1H15.1801V47H33.1801V1Z" stroke="#262B35" stroke-width="2" stroke-linejoin="round"/>
<path d="M14.9301 12H3.18005V47H45.1801V12H33.4301" stroke="#262B35" stroke-width="2" stroke-linejoin="round"/>
<path d="M13.1801 1H35.1801" stroke="#262B35" stroke-width="2" stroke-linejoin="round"/>
</g>
<defs>
<clipPath id="clip0_1_3241">
<rect width="48" height="48" fill="white" transform="translate(0.180054)"/>
</clipPath>
</defs>
</svg>
