<svg width="43" height="43" viewBox="0 0 43 43" fill="none" xmlns="http://www.w3.org/2000/svg">
<g clip-path="url(#clip0_1_4171)">
<path d="M18.3 2.9999C18.02 2.81324 17.6933 2.7199 17.32 2.7199C16.9467 2.7199 16.62 2.81324 16.34 2.9999L0.65999 18.8199C0.37999 19.0999 0.23999 19.4266 0.23999 19.7999V38.1399C0.23999 38.5132 0.37999 38.8166 0.65999 39.0499C0.93999 39.2832 1.26666 39.3999 1.63999 39.3999H13.4C13.7733 39.3999 14.0767 39.2832 14.31 39.0499C14.5433 38.8166 14.66 38.5132 14.66 38.1399V27.6399H19.98V38.1399C19.98 38.5132 20.0967 38.8166 20.33 39.0499C20.5633 39.2832 20.8667 39.3999 21.24 39.3999H33.14C33.42 39.3999 33.7 39.2832 33.98 39.0499C34.26 38.8166 34.4 38.5132 34.4 38.1399V19.7999C34.4 19.4266 34.26 19.0999 33.98 18.8199L30.48 15.3199V6.6399C30.48 6.26657 30.34 5.9399 30.06 5.6599C29.78 5.3799 29.4533 5.2399 29.08 5.2399H26.56C26.1867 5.2399 25.86 5.3799 25.58 5.6599C25.3 5.9399 25.16 6.26657 25.16 6.6399V9.9999L18.3 2.9999ZM2.89999 36.7399V20.3599L17.32 5.7999L31.74 20.3599V36.7399H22.64V26.2399C22.64 25.9599 22.5 25.6799 22.22 25.3999C21.94 25.1199 21.6133 24.9799 21.24 24.9799H13.4C13.0267 24.9799 12.7 25.1199 12.42 25.3999C12.14 25.6799 12 26.0066 12 26.3799V36.7399H2.89999Z" fill="#262B35"/>
</g>
<defs>
<clipPath id="clip0_1_4171">
<rect width="42.02" height="42" fill="white" transform="matrix(1 0 0 -1 0.22998 42.0601)"/>
</clipPath>
</defs>
</svg>
