<svg width="22" height="20" viewBox="0 0 22 20" fill="none" xmlns="http://www.w3.org/2000/svg">
<g clip-path="url(#clip0_1_4044)">
<path d="M5.26282 18.6368C5.00949 18.7212 4.78782 18.6896 4.59782 18.5418C4.40782 18.394 4.33393 18.1724 4.37616 17.8768L5.32616 12.3035L1.14616 8.31347C0.977268 8.10236 0.92449 7.87013 0.987823 7.6168C1.05116 7.36347 1.2306 7.21569 1.52616 7.17347L7.28949 6.35013L9.88616 1.22013C10.0128 0.966801 10.2028 0.840136 10.4562 0.840136C10.7095 0.840136 10.8995 0.966801 11.0262 1.22013L13.6228 6.35013L19.4495 7.17347C19.7028 7.21569 19.8612 7.36347 19.9245 7.6168C19.9878 7.87013 19.935 8.10236 19.7662 8.31347L15.5862 12.3035L16.5362 17.8768C16.5784 18.1724 16.5045 18.394 16.3145 18.5418C16.1245 18.6896 15.9028 18.7212 15.6495 18.6368L10.4562 15.9135L5.26282 18.6368Z" fill="#06AF47"/>
</g>
<defs>
<clipPath id="clip0_1_4044">
<rect width="21" height="19" fill="white" transform="matrix(1 0 0 -1 0.97998 19.27)"/>
</clipPath>
</defs>
</svg>
