<svg width="14" height="15" viewBox="0 0 14 15" fill="none" xmlns="http://www.w3.org/2000/svg">
<path d="M0.587891 8.56789H9.91211C10.0762 8.55877 10.2152 8.49953 10.3291 8.39015C10.443 8.28078 10.5 8.14406 10.5 7.98C10.5 7.81593 10.443 7.67921 10.3291 7.56984C10.2152 7.46046 10.0762 7.40122 9.91211 7.39211H0.587891C0.423828 7.40122 0.284831 7.46046 0.170898 7.56984C0.0569661 7.67921 0 7.81593 0 7.98C0 8.14406 0.0569661 8.28078 0.170898 8.39015C0.284831 8.49953 0.423828 8.55877 0.587891 8.56789ZM6.00195 11.0698C5.89258 11.1883 5.83789 11.325 5.83789 11.48C5.83789 11.6349 5.89714 11.7694 6.01562 11.8833C6.13411 11.9972 6.26855 12.0542 6.41895 12.0542C6.56934 12.0542 6.70378 11.9995 6.82227 11.8902L10.3223 8.39015C10.4408 8.27166 10.5 8.13494 10.5 7.98C10.5 7.82505 10.4408 7.68833 10.3223 7.56984L6.82227 4.06984C6.70378 3.96046 6.56934 3.90578 6.41895 3.90578C6.26855 3.90578 6.13411 3.96274 6.01562 4.07668C5.89714 4.19061 5.83789 4.32505 5.83789 4.48C5.83789 4.63494 5.89258 4.77166 6.00195 4.89015L9.0918 7.98L6.00195 11.0698Z" fill="white"/>
</svg>
