<svg width="39" height="2" viewBox="0 0 39 2" fill="none" xmlns="http://www.w3.org/2000/svg">
<g clip-path="url(#clip0_1_4339)">
<path d="M3.62441 0.914062C4.65996 0.914062 5.52291 0.907951 6.21328 0.895729C6.90364 0.883507 7.24882 0.868229 7.24882 0.849896C7.24882 0.831563 6.90364 0.816285 6.21328 0.804063C5.52291 0.79184 4.65996 0.785729 3.62441 0.785729C2.58887 0.785729 1.72591 0.79184 1.03555 0.804063C0.345182 0.816285 0 0.831563 0 0.849896C0 0.868229 0.345182 0.883507 1.03555 0.895729C1.72591 0.907951 2.58887 0.914062 3.62441 0.914062Z" fill="#717580"/>
</g>
<defs>
<clipPath id="clip0_1_4339">
<rect width="38.833" height="1" fill="white" transform="matrix(1 0 0 -1 0 1.3501)"/>
</clipPath>
</defs>
</svg>
