<svg width="19" height="19" viewBox="0 0 19 19" fill="none" xmlns="http://www.w3.org/2000/svg">
<g clip-path="url(#clip0_1_4448)">
<path d="M2.41016 2.78125H14.3984C15.043 2.79297 15.5762 3.0127 15.998 3.44043C16.4199 3.86816 16.6367 4.39844 16.6484 5.03125V14.0312C16.6367 14.6641 16.4199 15.1943 15.998 15.6221C15.5762 16.0498 15.043 16.2695 14.3984 16.2812H2.41016C1.76562 16.2695 1.23242 16.0498 0.810547 15.6221C0.388672 15.1943 0.171875 14.6641 0.160156 14.0312V5.03125C0.171875 4.39844 0.388672 3.86816 0.810547 3.44043C1.23242 3.0127 1.76562 2.79297 2.41016 2.78125ZM15.0664 4.69727C15.0078 4.56836 14.9199 4.46875 14.8027 4.39844C14.6855 4.32812 14.5508 4.28711 14.3984 4.27539H2.41016C2.25781 4.28711 2.12305 4.32812 2.00586 4.39844C1.88867 4.46875 1.80078 4.56836 1.74219 4.69727L8.4043 9.37305L15.0664 4.69727ZM15.1543 6.47266L8.82617 10.9023C8.69727 10.9844 8.55664 11.0254 8.4043 11.0254C8.25195 11.0254 8.11133 10.9844 7.98242 10.9023L1.6543 6.47266V14.0312C1.6543 14.2422 1.72754 14.418 1.87402 14.5586C2.02051 14.6992 2.19922 14.7754 2.41016 14.7871H14.3984C14.6094 14.7754 14.7881 14.6992 14.9346 14.5586C15.0811 14.418 15.1543 14.2422 15.1543 14.0312V6.47266Z" fill="#06AF47"/>
</g>
<defs>
<clipPath id="clip0_1_4448">
<rect width="18" height="18" fill="white" transform="matrix(1 0 0 -1 0.160156 18.5312)"/>
</clipPath>
</defs>
</svg>
