<svg width="43" height="43" viewBox="0 0 43 43" fill="none" xmlns="http://www.w3.org/2000/svg">
<g clip-path="url(#clip0_1_4213)">
<path d="M21.24 12.5201C19.6533 12.5201 18.23 12.9167 16.97 13.7101C15.71 14.5034 14.6833 15.5301 13.89 16.7901C13.0967 18.0501 12.7 19.4734 12.7 21.0601C12.7 22.6467 13.0967 24.0701 13.89 25.3301C14.6833 26.5901 15.71 27.6167 16.97 28.4101C18.23 29.2034 19.6533 29.6001 21.24 29.6001C22.8267 29.6001 24.25 29.2034 25.51 28.4101C26.77 27.6167 27.7967 26.5901 28.59 25.3301C29.3833 24.0701 29.78 22.6467 29.78 21.0601C29.78 19.4734 29.3833 18.0501 28.59 16.7901C27.7967 15.5301 26.77 14.5034 25.51 13.7101C24.25 12.9167 22.8267 12.5201 21.24 12.5201ZM15.36 21.0601C15.36 19.4734 15.9433 18.0967 17.11 16.9301C18.2767 15.7634 19.6533 15.1801 21.24 15.1801C22.8267 15.1801 24.2033 15.7634 25.37 16.9301C26.5367 18.0967 27.12 19.4734 27.12 21.0601C27.12 22.6467 26.5367 24.0234 25.37 25.1901C24.2033 26.3567 22.8267 26.9401 21.24 26.9401C19.6533 26.9401 18.2767 26.3567 17.11 25.1901C15.9433 24.0234 15.36 22.6467 15.36 21.0601ZM26 3.56006C25.5333 2.06673 24.6233 1.04006 23.27 0.480057C21.9167 -0.0799408 20.5633 -0.0799408 19.21 0.480057C17.8567 1.04006 16.9467 2.06673 16.48 3.56006L16.34 4.40006C16.06 5.14672 15.5933 5.66006 14.94 5.94006C14.2867 6.22006 13.6333 6.17339 12.98 5.80006L12.28 5.38006C10.88 4.63339 9.50332 4.54006 8.14999 5.10006C6.79666 5.66006 5.83999 6.61673 5.27999 7.97006C4.71999 9.32339 4.81332 10.7001 5.55999 12.1001L5.97999 12.8001C6.35332 13.4534 6.39999 14.1067 6.11999 14.7601C5.83999 15.4134 5.32666 15.8801 4.57999 16.1601L3.73999 16.3001C2.24666 16.7667 1.21999 17.6767 0.65999 19.0301C0.0999902 20.3834 0.0999902 21.7367 0.65999 23.0901C1.21999 24.4434 2.24666 25.3534 3.73999 25.8201L4.57999 25.9601C5.32666 26.2401 5.83999 26.7067 6.11999 27.3601C6.39999 28.0134 6.35332 28.6667 5.97999 29.3201L5.55999 30.0201C4.81332 31.4201 4.71999 32.7967 5.27999 34.1501C5.83999 35.5034 6.79666 36.4601 8.14999 37.0201C9.50332 37.5801 10.88 37.4867 12.28 36.7401L12.98 36.3201C13.6333 35.9467 14.2867 35.9001 14.94 36.1801C15.5933 36.4601 16.06 36.9734 16.34 37.7201L16.48 38.5601C16.9467 40.0534 17.8567 41.0801 19.21 41.6401C20.5633 42.2001 21.9167 42.2001 23.27 41.6401C24.6233 41.0801 25.5333 40.0534 26 38.5601L26.14 37.7201C26.42 36.9734 26.8867 36.4601 27.54 36.1801C28.1933 35.9001 28.8467 35.9467 29.5 36.3201L30.2 36.7401C31.6 37.4867 32.9767 37.5801 34.33 37.0201C35.6833 36.4601 36.64 35.5034 37.2 34.1501C37.76 32.7967 37.6667 31.4201 36.92 30.0201L36.5 29.3201C36.1267 28.6667 36.08 28.0134 36.36 27.3601C36.64 26.7067 37.1533 26.2401 37.9 25.9601L38.74 25.8201C40.2333 25.3534 41.26 24.4434 41.82 23.0901C42.38 21.7367 42.38 20.3834 41.82 19.0301C41.26 17.6767 40.2333 16.7667 38.74 16.3001L37.9 16.1601C37.1533 15.8801 36.64 15.4134 36.36 14.7601C36.08 14.1067 36.1267 13.4534 36.5 12.8001L36.92 12.1001C37.6667 10.7001 37.76 9.32339 37.2 7.97006C36.64 6.61673 35.6833 5.66006 34.33 5.10006C32.9767 4.54006 31.6 4.63339 30.2 5.38006L29.5 5.80006C28.8467 6.17339 28.1933 6.22006 27.54 5.94006C26.8867 5.66006 26.42 5.14672 26.14 4.40006L26 3.56006ZM19 4.26006C19.28 3.60672 19.7233 3.14006 20.33 2.86006C20.9367 2.58006 21.5433 2.58006 22.15 2.86006C22.7567 3.14006 23.2 3.60672 23.48 4.26006L23.62 5.10006C23.9 5.84673 24.2733 6.50006 24.74 7.06006C25.2067 7.62006 25.79 8.04006 26.49 8.32006C27.19 8.60006 27.9133 8.71672 28.66 8.67006C29.4067 8.62339 30.1067 8.41339 30.76 8.04006L31.46 7.62006C32.1133 7.34006 32.7667 7.31673 33.42 7.55006C34.0733 7.78339 34.5167 8.22673 34.75 8.88006C34.9833 9.53339 34.96 10.1867 34.68 10.8401L34.26 11.5401C33.8867 12.1934 33.6767 12.8934 33.63 13.6401C33.5833 14.3867 33.7 15.1101 33.98 15.8101C34.26 16.5101 34.68 17.0934 35.24 17.5601C35.8 18.0267 36.4533 18.4001 37.2 18.6801L38.04 18.8201C38.6933 19.1001 39.16 19.5434 39.44 20.1501C39.72 20.7567 39.72 21.3634 39.44 21.9701C39.16 22.5767 38.6933 23.0201 38.04 23.3001L37.2 23.4401C36.4533 23.7201 35.8 24.0934 35.24 24.5601C34.68 25.0267 34.26 25.6101 33.98 26.3101C33.7 27.0101 33.5833 27.7334 33.63 28.4801C33.6767 29.2267 33.8867 29.9267 34.26 30.5801L34.68 31.2801C34.96 31.9334 34.9833 32.5867 34.75 33.2401C34.5167 33.8934 34.0733 34.3367 33.42 34.5701C32.7667 34.8034 32.1133 34.7801 31.46 34.5001L30.76 34.0801C30.1067 33.7067 29.4067 33.4967 28.66 33.4501C27.9133 33.4034 27.19 33.5201 26.49 33.8001C25.79 34.0801 25.2067 34.5001 24.74 35.0601C24.2733 35.6201 23.9 36.2734 23.62 37.0201L23.48 37.8601C23.2 38.5134 22.7567 38.9801 22.15 39.2601C21.5433 39.5401 20.9367 39.5401 20.33 39.2601C19.7233 38.9801 19.28 38.5134 19 37.8601L18.86 37.0201C18.58 36.2734 18.2067 35.6201 17.74 35.0601C17.2733 34.5001 16.69 34.0801 15.99 33.8001C15.29 33.5201 14.5667 33.4034 13.82 33.4501C13.0733 33.4967 12.3733 33.7067 11.72 34.0801L11.02 34.5001C10.3667 34.7801 9.71332 34.8034 9.05999 34.5701C8.40666 34.3367 7.96332 33.8934 7.72999 33.2401C7.49666 32.5867 7.51999 31.9334 7.79999 31.2801L8.21999 30.5801C8.59332 29.9267 8.80332 29.2267 8.84999 28.4801C8.89666 27.7334 8.77999 27.0101 8.49999 26.3101C8.21999 25.6101 7.79999 25.0267 7.23999 24.5601C6.67999 24.0934 6.02666 23.7201 5.27999 23.4401L4.43999 23.3001C3.78666 23.0201 3.31999 22.5767 3.03999 21.9701C2.75999 21.3634 2.75999 20.7567 3.03999 20.1501C3.31999 19.5434 3.78666 19.1001 4.43999 18.8201L5.27999 18.6801C6.02666 18.4001 6.67999 18.0267 7.23999 17.5601C7.79999 17.0934 8.21999 16.5101 8.49999 15.8101C8.77999 15.1101 8.89666 14.3867 8.84999 13.6401C8.80332 12.8934 8.59332 12.1934 8.21999 11.5401L7.79999 10.8401C7.51999 10.1867 7.49666 9.53339 7.72999 8.88006C7.96332 8.22673 8.40666 7.78339 9.05999 7.55006C9.71332 7.31673 10.3667 7.34006 11.02 7.62006L11.72 8.04006C12.3733 8.41339 13.0733 8.62339 13.82 8.67006C14.5667 8.71672 15.29 8.60006 15.99 8.32006C16.69 8.04006 17.2733 7.62006 17.74 7.06006C18.2067 6.50006 18.58 5.84673 18.86 5.10006L19 4.26006Z" fill="#262B35"/>
</g>
<defs>
<clipPath id="clip0_1_4213">
<rect width="42.02" height="42" fill="white" transform="matrix(1 0 0 -1 0.22998 42.0601)"/>
</clipPath>
</defs>
</svg>
