<svg width="43" height="43" viewBox="0 0 43 43" fill="none" xmlns="http://www.w3.org/2000/svg">
<g clip-path="url(#clip0_1_4185)">
<path d="M40.08 31.5599C40.08 32.3065 39.8233 32.9365 39.31 33.4499C38.7967 33.9632 38.2133 34.2199 37.56 34.2199H6.05999C5.31332 34.2199 4.68332 33.9632 4.16999 33.4499C3.65666 32.9365 3.39999 32.3065 3.39999 31.5599V15.7399C3.39999 15.0865 3.65666 14.5032 4.16999 13.9899C4.68332 13.4765 5.26666 13.2199 5.91999 13.2199H8.99999C11.24 13.2199 13.1067 12.4265 14.6 10.8399L16.84 8.73988C17.3067 8.17988 17.9133 7.89988 18.66 7.89988H24.82C25.5667 7.89988 26.1733 8.17988 26.64 8.73988L28.88 10.8399C30.3733 12.4265 32.24 13.2199 34.48 13.2199H37.56C38.2133 13.2199 38.7967 13.4765 39.31 13.9899C39.8233 14.5032 40.08 15.0865 40.08 15.7399V31.5599ZM6.05999 10.5599C4.56666 10.5599 3.30666 11.0732 2.27999 12.0999C1.25332 13.1265 0.73999 14.3865 0.73999 15.8799V31.5599C0.73999 33.0532 1.25332 34.3132 2.27999 35.3399C3.30666 36.3665 4.51999 36.8799 5.91999 36.8799H37.56C38.96 36.7865 40.1733 36.2499 41.2 35.2699C42.2267 34.2899 42.74 33.0532 42.74 31.5599V15.7399C42.74 14.3399 42.2267 13.1265 41.2 12.0999C40.1733 11.0732 38.9133 10.5599 37.42 10.5599H34.48C32.9867 10.5599 31.7267 10.0465 30.7 9.01988L28.46 6.77988C27.5267 5.84655 26.3133 5.33322 24.82 5.23988H18.66C17.1667 5.33322 15.9533 5.84655 15.02 6.77988L12.78 9.01988C11.7533 10.0465 10.4933 10.5599 8.99999 10.5599H6.05999ZM21.74 28.8999C19.9667 28.8999 18.4267 28.2699 17.12 27.0099C15.8133 25.7499 15.16 24.2099 15.16 22.3899C15.16 20.5699 15.8133 19.0065 17.12 17.6999C18.4267 16.3932 19.9667 15.7399 21.74 15.7399C23.5133 15.7399 25.0533 16.3932 26.36 17.6999C27.6667 19.0065 28.32 20.5699 28.32 22.3899C28.32 24.2099 27.6667 25.7499 26.36 27.0099C25.0533 28.2699 23.5133 28.8999 21.74 28.8999ZM21.74 31.5599C23.42 31.5599 24.96 31.1399 26.36 30.2999C27.76 29.4599 28.88 28.3399 29.72 26.9399C30.56 25.5399 30.98 24.0232 30.98 22.3899C30.98 20.7565 30.56 19.2165 29.72 17.7699C28.88 16.3232 27.76 15.2032 26.36 14.4099C24.96 13.6165 23.42 13.2199 21.74 13.2199C20.06 13.2199 18.52 13.6165 17.12 14.4099C15.72 15.2032 14.6 16.3232 13.76 17.7699C12.92 19.2165 12.5 20.7565 12.5 22.3899C12.5 24.0232 12.92 25.5399 13.76 26.9399C14.6 28.3399 15.72 29.4599 17.12 30.2999C18.52 31.1399 20.06 31.5599 21.74 31.5599ZM8.57999 17.1399C8.57999 17.5132 8.46332 17.8165 8.22999 18.0499C7.99666 18.2832 7.69332 18.3999 7.31999 18.3999C6.94666 18.3999 6.64332 18.2832 6.40999 18.0499C6.17666 17.8165 6.05999 17.5132 6.05999 17.1399C6.05999 16.7666 6.17666 16.4399 6.40999 16.1599C6.64332 15.8799 6.94666 15.7399 7.31999 15.7399C7.69332 15.7399 7.99666 15.8799 8.22999 16.1599C8.46332 16.4399 8.57999 16.7666 8.57999 17.1399Z" fill="#262B35"/>
</g>
<defs>
<clipPath id="clip0_1_4185">
<rect width="42.02" height="42" fill="white" transform="matrix(1 0 0 -1 0.72998 42.0601)"/>
</clipPath>
</defs>
</svg>
