<svg width="43" height="43" viewBox="0 0 43 43" fill="none" xmlns="http://www.w3.org/2000/svg">
<g clip-path="url(#clip0_1_4199)">
<path d="M0.23999 21.0599C0.23999 18.7266 0.963324 16.6032 2.40999 14.6899C3.85666 12.7766 5.72332 11.5166 8.00999 10.9099C10.2967 10.3032 12.5367 10.4432 14.73 11.3299C16.9233 12.2166 18.6267 13.7332 19.84 15.8799H37.06C37.34 15.7866 37.62 15.8799 37.9 16.1599L41.82 20.0799C42.1 20.3599 42.24 20.6866 42.24 21.0599C42.24 21.4332 42.1 21.7599 41.82 22.0399L37.9 25.9599C37.62 26.2399 37.3167 26.3799 36.99 26.3799C36.6633 26.3799 36.36 26.2399 36.08 25.9599L34.4 24.2799L32.72 25.9599C32.44 26.2399 32.1133 26.3799 31.74 26.3799C31.3667 26.3799 31.04 26.2399 30.76 25.9599L29.08 24.2799L27.4 25.9599C27.12 26.2399 26.8167 26.3799 26.49 26.3799C26.1633 26.3799 25.86 26.2399 25.58 25.9599L23.9 24.2799L22.22 25.9599C21.94 26.2399 21.6133 26.3332 21.24 26.2399H19.84C18.6267 28.3866 16.9233 29.9032 14.73 30.7899C12.5367 31.6766 10.2967 31.8166 8.00999 31.2099C5.72332 30.6032 3.85666 29.3432 2.40999 27.4299C0.963324 25.5166 0.23999 23.3932 0.23999 21.0599ZM10.74 13.2199C8.77999 13.2199 7.05332 13.8499 5.55999 15.1099C4.06666 16.3699 3.17999 17.9566 2.89999 19.8699C2.61999 21.7832 3.01666 23.5799 4.08999 25.2599C5.16332 26.9399 6.63332 28.0599 8.49999 28.6199C10.3667 29.1799 12.1867 29.0632 13.96 28.2699C15.7333 27.4766 17.04 26.1932 17.88 24.4199C18.0667 23.9532 18.44 23.7199 19 23.7199H20.68L22.92 21.4799C23.2 21.1999 23.5267 21.0599 23.9 21.0599C24.2733 21.0599 24.5533 21.1999 24.74 21.4799L26.56 23.1599L28.24 21.4799C28.4267 21.1999 28.7067 21.0599 29.08 21.0599C29.4533 21.0599 29.78 21.1999 30.06 21.4799L31.74 23.1599L33.42 21.4799C33.7 21.1999 34.0267 21.0599 34.4 21.0599C34.7733 21.0599 35.0533 21.1999 35.24 21.4799L37.06 23.1599L39.02 21.0599L36.5 18.3999H19C18.44 18.3999 18.0667 18.1666 17.88 17.6999C17.2267 16.2999 16.2467 15.2032 14.94 14.4099C13.6333 13.6166 12.2333 13.2199 10.74 13.2199ZM10.74 21.0599C10.74 21.8066 10.4833 22.4366 9.96999 22.9499C9.45666 23.4632 8.82666 23.7199 8.07999 23.7199C7.33332 23.7199 6.72666 23.4632 6.25999 22.9499C5.79332 22.4366 5.55999 21.8066 5.55999 21.0599C5.55999 20.3132 5.79332 19.6832 6.25999 19.1699C6.72666 18.6566 7.33332 18.3999 8.07999 18.3999C8.82666 18.3999 9.45666 18.6566 9.96999 19.1699C10.4833 19.6832 10.74 20.3132 10.74 21.0599Z" fill="#262B35"/>
</g>
<defs>
<clipPath id="clip0_1_4199">
<rect width="42.02" height="42" fill="white" transform="matrix(1 0 0 -1 0.22998 42.0601)"/>
</clipPath>
</defs>
</svg>
