<svg width="35" height="35" viewBox="0 0 35 35" fill="none" xmlns="http://www.w3.org/2000/svg">
<g clip-path="url(#clip0_1_4227)">
<path d="M22.1167 13.4835C22.3433 13.7102 22.4567 13.9746 22.4567 14.2769C22.4567 14.5791 22.3433 14.8435 22.1167 15.0702L15.77 21.4169C15.5433 21.6435 15.2789 21.7569 14.9767 21.7569C14.6744 21.7569 14.4478 21.6435 14.2967 21.4169L11.01 18.2435C10.8589 18.0169 10.7833 17.7524 10.7833 17.4502C10.7833 17.148 10.8778 16.9024 11.0667 16.7135C11.2556 16.5246 11.5011 16.4302 11.8033 16.4302C12.1056 16.4302 12.37 16.5058 12.5967 16.6569L14.9767 19.1502L20.6433 13.4835C20.87 13.2569 21.1156 13.1435 21.38 13.1435C21.6444 13.1435 21.89 13.2569 22.1167 13.4835ZM22.0033 5.77686L19.9633 3.73686L21.55 2.26353L22.7967 3.62353H24.7233C25.5545 3.62353 26.3478 3.77464 27.1033 4.07686C27.8589 4.37908 28.5389 4.83242 29.1433 5.43686C29.7478 6.04131 30.2011 6.72131 30.5033 7.47686C30.8056 8.23242 30.9567 9.02575 30.9567 9.85686V11.7835L32.3167 13.0302C32.8456 13.6346 33.28 14.3146 33.62 15.0702C33.96 15.8258 34.13 16.6191 34.13 17.4502C34.13 18.2813 33.96 19.0746 33.62 19.8302C33.28 20.5858 32.8456 21.2658 32.3167 21.8702L30.9567 23.1169V25.0435C30.9567 25.8746 30.8056 26.668 30.5033 27.4235C30.2011 28.1791 29.7478 28.8591 29.1433 29.4635C28.5389 30.068 27.8589 30.5213 27.1033 30.8235C26.3478 31.1258 25.5545 31.2769 24.7233 31.2769H22.7967L21.55 32.6369C20.9456 33.1658 20.2656 33.6002 19.51 33.9402C18.7544 34.2802 17.9611 34.4502 17.13 34.4502C16.2989 34.4502 15.5056 34.2802 14.75 33.9402C13.9944 33.6002 13.3144 33.1658 12.71 32.6369L11.4633 31.2769H9.53667C8.70556 31.2769 7.91223 31.1258 7.15667 30.8235C6.40112 30.5213 5.72112 30.068 5.11667 29.4635C4.51223 28.8591 4.05889 28.1791 3.75667 27.4235C3.45445 26.668 3.30334 25.8746 3.30334 25.0435V23.1169L1.94334 21.8702C1.41445 21.2658 0.980005 20.5858 0.640005 19.8302C0.300005 19.0746 0.130005 18.2813 0.130005 17.4502C0.130005 16.6191 0.300005 15.8258 0.640005 15.0702C0.980005 14.3146 1.41445 13.6346 1.94334 13.0302L3.30334 11.7835V9.85686C3.30334 9.02575 3.45445 8.23242 3.75667 7.47686C4.05889 6.72131 4.51223 6.04131 5.11667 5.43686C5.72112 4.83242 6.40112 4.37908 7.15667 4.07686C7.91223 3.77464 8.70556 3.62353 9.53667 3.62353H11.4633L12.71 2.26353C13.3144 1.73464 13.9944 1.30019 14.75 0.960194C15.5056 0.620193 16.2989 0.450195 17.13 0.450195C17.9611 0.450195 18.7544 0.620193 19.51 0.960194C20.2656 1.30019 20.9456 1.73464 21.55 2.26353L19.9633 3.73686C19.2078 2.98131 18.2633 2.60353 17.13 2.60353C15.9967 2.60353 15.0522 2.98131 14.2967 3.73686L12.2567 5.77686H9.53667C8.40334 5.77686 7.44001 6.17353 6.64667 6.96686C5.85334 7.76019 5.45667 8.72353 5.45667 9.85686V12.5769L3.41667 14.6169C2.66112 15.3724 2.28334 16.3169 2.28334 17.4502C2.28334 18.5835 2.66112 19.528 3.41667 20.2835L5.45667 22.3235V25.0435C5.45667 26.1769 5.85334 27.1402 6.64667 27.9335C7.44001 28.7269 8.40334 29.1235 9.53667 29.1235H12.2567L14.2967 31.1635C15.0522 31.9191 15.9967 32.2969 17.13 32.2969C18.2633 32.2969 19.2078 31.9191 19.9633 31.1635L22.0033 29.1235H24.7233C25.8567 29.1235 26.82 28.7269 27.6133 27.9335C28.4067 27.1402 28.8033 26.1769 28.8033 25.0435V22.3235L30.8433 20.2835C31.5989 19.528 31.9767 18.5835 31.9767 17.4502C31.9767 16.3169 31.5989 15.3724 30.8433 14.6169L28.8033 12.5769V9.85686C28.8033 8.72353 28.4067 7.76019 27.6133 6.96686C26.82 6.17353 25.8567 5.77686 24.7233 5.77686H22.0033Z" fill="#06AF47"/>
</g>
<defs>
<clipPath id="clip0_1_4227">
<rect width="34" height="34" fill="white" transform="matrix(1 0 0 -1 0.130005 34.4502)"/>
</clipPath>
</defs>
</svg>
