<svg width="35" height="37" viewBox="0 0 35 37" fill="none" xmlns="http://www.w3.org/2000/svg">
<g clip-path="url(#clip0_1_3067)">
<path d="M1.54443 13.2212L14.2944 3.32666C14.5601 3.12744 14.8478 3.02783 15.1577 3.02783C15.4676 3.02783 15.7554 3.12744 16.021 3.32666L28.771 13.2212C29.1252 13.509 29.3133 13.8853 29.3354 14.3501V29.9224C29.2912 31.1398 28.8706 32.147 28.0737 32.9438C27.2769 33.7407 26.2808 34.1502 25.0854 34.1724H5.22998C4.03467 34.1502 3.03857 33.7407 2.2417 32.9438C1.44482 32.147 1.02425 31.1398 0.97998 29.9224V14.3501C1.00212 13.8853 1.19027 13.509 1.54443 13.2212ZM20.8354 31.3501H25.0854C25.4839 31.3501 25.8159 31.2118 26.0815 30.9351C26.3472 30.6584 26.48 30.3208 26.48 29.9224V15.0474L15.1577 6.21533L3.83545 15.0474V29.9224C3.83545 30.3208 3.96826 30.6584 4.23389 30.9351C4.49951 31.2118 4.83154 31.3501 5.22998 31.3501H9.47998V18.6001C9.50212 18.2017 9.646 17.8696 9.91162 17.604C10.1772 17.3384 10.5093 17.1945 10.9077 17.1724H19.4077C19.8062 17.1945 20.1382 17.3384 20.4038 17.604C20.6694 17.8696 20.8133 18.2017 20.8354 18.6001V31.3501ZM12.3354 31.3501H17.98V20.0278H12.3354V31.3501Z" fill="white"/>
</g>
<defs>
<clipPath id="clip0_1_3067">
<rect width="34" height="36.8" fill="white" transform="matrix(1 0 0 -1 0.97998 37.0001)"/>
</clipPath>
</defs>
</svg>
