<svg width="35" height="35" viewBox="0 0 35 35" fill="none" xmlns="http://www.w3.org/2000/svg">
<g clip-path="url(#clip0_1_4072)">
<path d="M6.68164 24.3601C6.90831 24.0578 7.21053 23.9067 7.58831 23.9067H12.915C13.1416 23.9067 13.3683 24.0201 13.595 24.2467C13.8216 24.4734 13.935 24.7378 13.935 25.0401C13.935 25.3423 13.8216 25.5878 13.595 25.7767C13.3683 25.9656 13.1039 26.0601 12.8016 26.0601H8.04164L3.28164 32.4067H30.935L26.175 26.0601H21.415C21.1128 26.0601 20.8483 25.9656 20.6216 25.7767C20.395 25.5878 20.2816 25.3423 20.2816 25.0401C20.2816 24.7378 20.395 24.4734 20.6216 24.2467C20.8483 24.0201 21.075 23.9067 21.3016 23.9067H26.6283C27.0061 23.9067 27.3083 24.0578 27.535 24.3601L33.8816 32.8601C34.1839 33.2378 34.2216 33.6156 33.995 33.9934C33.7683 34.3712 33.4661 34.5601 33.0883 34.5601H1.12831C0.750531 34.5601 0.448309 34.3712 0.221642 33.9934C-0.00502466 33.6156 0.0327531 33.2378 0.334975 32.8601L6.68164 24.3601ZM17.1083 2.71339C15.3705 2.71339 13.8783 3.33673 12.6316 4.58339C11.385 5.83006 10.7616 7.32228 10.7616 9.06006C10.7616 10.7978 11.385 12.2901 12.6316 13.5367C13.8783 14.7834 15.3705 15.4067 17.1083 15.4067C18.8461 15.4067 20.3383 14.7834 21.585 13.5367C22.8316 12.2901 23.455 10.7978 23.455 9.06006C23.455 7.32228 22.8316 5.83006 21.585 4.58339C20.3383 3.33673 18.8461 2.71339 17.1083 2.71339ZM8.60831 9.06006C8.60831 7.54895 8.9672 6.15117 9.68498 4.86673C10.4028 3.58228 11.385 2.56228 12.6316 1.80672C13.8783 1.05117 15.2572 0.635616 16.7683 0.560059C18.2794 0.484505 19.6772 0.786728 20.9616 1.46673C22.2461 2.14672 23.3039 3.09117 24.135 4.30006C24.9661 5.50895 25.4383 6.85006 25.5516 8.32339C25.665 9.79673 25.4194 11.2134 24.815 12.5734C24.2105 13.9334 23.3228 15.0478 22.1516 15.9167C20.9805 16.7856 19.6394 17.2956 18.1283 17.4467V29.2334C18.1283 29.5356 18.0339 29.7812 17.845 29.9701C17.6561 30.1589 17.4105 30.2534 17.1083 30.2534C16.8061 30.2534 16.5605 30.1589 16.3716 29.9701C16.1828 29.7812 16.0883 29.5356 16.0883 29.2334V17.4467C13.8972 17.2201 12.1028 16.2945 10.705 14.6701C9.3072 13.0456 8.60831 11.1756 8.60831 9.06006Z" fill="#06AF47"/>
</g>
<defs>
<clipPath id="clip0_1_4072">
<rect width="34" height="34" fill="white" transform="matrix(1 0 0 -1 0.0799561 34.5601)"/>
</clipPath>
</defs>
</svg>
