<svg width="17" height="17" viewBox="0 0 17 17" fill="none" xmlns="http://www.w3.org/2000/svg">
<g clip-path="url(#clip0_1_3154)">
<path d="M14.786 2.48V5.80812C14.786 5.99562 14.8485 6.15448 14.9735 6.28469C15.0985 6.41489 15.2547 6.48 15.4422 6.48C15.6297 6.48 15.7886 6.41489 15.9188 6.28469C16.049 6.15448 16.1141 5.99562 16.1141 5.80812V1.80812C16.1141 1.63104 16.049 1.47739 15.9188 1.34719C15.7886 1.21698 15.6297 1.15187 15.4422 1.15187H11.4422C11.2547 1.15187 11.0985 1.21437 10.9735 1.33937C10.8485 1.46437 10.786 1.62062 10.786 1.80812C10.786 1.99562 10.8485 2.15448 10.9735 2.28469C11.0985 2.41489 11.2547 2.48 11.4422 2.48H14.786ZM11.2547 6.94875L15.911 2.27687C16.0047 2.19354 16.0672 2.09458 16.0985 1.98C16.1297 1.86541 16.1297 1.75083 16.0985 1.63625C16.0672 1.52166 16.0099 1.42271 15.9266 1.33937C15.8433 1.25604 15.7417 1.19875 15.6219 1.1675C15.5021 1.13625 15.3849 1.13625 15.2704 1.1675C15.1558 1.19875 15.0568 1.25604 14.9735 1.33937L10.3016 6.01125C10.2183 6.09458 10.161 6.19354 10.1297 6.30812C10.0985 6.42271 10.0985 6.53989 10.1297 6.65969C10.161 6.77948 10.2183 6.88104 10.3016 6.96437C10.3849 7.04771 10.4865 7.105 10.6063 7.13625C10.7261 7.1675 10.8433 7.1675 10.9579 7.13625C11.0724 7.105 11.1714 7.0425 11.2547 6.94875ZM14.1141 12.4331C14.1141 12.2456 14.062 12.0894 13.9579 11.9644C13.8537 11.8394 13.7183 11.7612 13.5516 11.73C12.8537 11.6362 12.1766 11.4696 11.5204 11.23C11.3954 11.1883 11.273 11.1805 11.1532 11.2066C11.0334 11.2326 10.9266 11.2873 10.8329 11.3706L9.97348 12.23C9.86932 12.3342 9.74432 12.3967 9.59848 12.4175C9.45265 12.4383 9.31202 12.4123 9.17661 12.3394C8.29119 11.829 7.48911 11.2144 6.77036 10.4956C6.05161 9.77687 5.43702 8.97479 4.92661 8.08937C4.85369 7.95396 4.82765 7.81333 4.84848 7.6675C4.86932 7.52166 4.93182 7.39146 5.03598 7.27687L5.87973 6.43312C5.97348 6.33937 6.03338 6.23 6.05942 6.105C6.08546 5.98 6.07765 5.855 6.03598 5.73C5.78598 5.08416 5.61411 4.41229 5.52036 3.71437C5.49952 3.54771 5.42661 3.41229 5.30161 3.30812C5.17661 3.20396 5.02557 3.15187 4.84848 3.15187H2.84848C2.66098 3.15187 2.50213 3.22219 2.37192 3.36281C2.24171 3.50344 2.18182 3.6675 2.19223 3.855C2.2964 4.84458 2.51254 5.80031 2.84067 6.72219C3.16879 7.64406 3.59848 8.52166 4.12973 9.355C4.61931 10.1258 5.18442 10.829 5.82504 11.4644C6.46567 12.0998 7.1714 12.6623 7.94223 13.1519C8.76515 13.6831 9.63494 14.1128 10.5516 14.4409C11.4683 14.7691 12.411 14.9852 13.3797 15.0894C13.5776 15.1102 13.7495 15.0529 13.8954 14.9175C14.0412 14.7821 14.1141 14.6206 14.1141 14.4331V12.4331ZM15.4422 14.4644C15.4422 14.7456 15.3875 15.0165 15.2782 15.2769C15.1688 15.5373 15.0073 15.7639 14.7938 15.9566C14.5803 16.1493 14.3407 16.2899 14.075 16.3784C13.8094 16.467 13.5308 16.4956 13.2391 16.4644C12.1558 16.3498 11.1037 16.1102 10.0829 15.7456C9.06202 15.381 8.09327 14.9071 7.17661 14.3237C6.32244 13.7821 5.54119 13.1571 4.83286 12.4487C4.12452 11.7404 3.49952 10.9592 2.95786 10.105C2.35369 9.17791 1.86932 8.20135 1.50473 7.17531C1.14015 6.14927 0.900565 5.08937 0.785982 3.99562C0.765148 3.71437 0.799003 3.44094 0.887544 3.17531C0.976086 2.90969 1.11671 2.67271 1.30942 2.46437C1.50213 2.25604 1.72609 2.09458 1.98129 1.98C2.2365 1.86541 2.50473 1.80812 2.78598 1.80812H4.80161C5.31202 1.81854 5.75213 1.9826 6.12192 2.30031C6.49171 2.61802 6.71827 3.03208 6.80161 3.5425C6.88494 4.13625 7.03077 4.71437 7.23911 5.27687C7.37452 5.65187 7.40317 6.02687 7.32504 6.40187C7.24692 6.77687 7.06723 7.11021 6.78598 7.40187L6.30161 7.87062C6.69744 8.49562 7.15317 9.06593 7.66879 9.58156C8.18442 10.0972 8.75473 10.5529 9.37973 10.9487L9.86411 10.4644C10.1454 10.1831 10.4735 10.0034 10.8485 9.92531C11.2235 9.84718 11.5985 9.87583 11.9735 10.0112C12.536 10.2196 13.1193 10.3654 13.7235 10.4487C14.2339 10.5217 14.648 10.7456 14.9657 11.1206C15.2834 11.4956 15.4422 11.9435 15.4422 12.4644V14.4644Z" fill="#06AF47"/>
</g>
<defs>
<clipPath id="clip0_1_3154">
<rect width="16" height="16" fill="white" transform="matrix(1 0 0 -1 0.780029 16.48)"/>
</clipPath>
</defs>
</svg>
