<svg width="27" height="2" viewBox="0 0 27 2" fill="none" xmlns="http://www.w3.org/2000/svg">
<g clip-path="url(#clip0_1_4266)">
<path d="M6.03432 1.48683C5.70372 1.49128 5.41444 1.48961 5.16649 1.48183C4.91854 1.47406 4.82212 1.46239 4.87722 1.44683L6.11697 1.1535L0.662067 0.9435C0.441667 0.932389 0.372792 0.920167 0.455442 0.906834C0.538092 0.8935 0.772267 0.885722 1.15797 0.8835L8.67912 0.840167L12.0678 0.570167C12.2331 0.556834 12.481 0.550167 12.8116 0.550167C13.1422 0.550167 13.3902 0.556834 13.5555 0.570167L16.9441 0.840167L24.5479 0.8835C24.8785 0.885722 25.0851 0.8935 25.1678 0.906834C25.2504 0.920167 25.1816 0.932389 24.9612 0.9435L19.5063 1.1535L20.746 1.44683C20.8011 1.46239 20.7047 1.47406 20.4567 1.48183C20.2088 1.48961 19.9195 1.49128 19.5889 1.48683L12.8116 1.3435L6.03432 1.48683Z" fill="#FD961E"/>
</g>
<defs>
<clipPath id="clip0_1_4266">
<rect width="26.1725" height="1" fill="white" transform="matrix(1 0 0 -1 0.445068 1.52002)"/>
</clipPath>
</defs>
</svg>
