<svg width="15" height="16" viewBox="0 0 15 16" fill="none" xmlns="http://www.w3.org/2000/svg">
<g clip-path="url(#clip0_1_3109)">
<path d="M1.20801 8.33789H10.5322C10.6963 8.32878 10.8353 8.26953 10.9492 8.16016C11.0632 8.05078 11.1201 7.91406 11.1201 7.75C11.1201 7.58594 11.0632 7.44922 10.9492 7.33984C10.8353 7.23047 10.6963 7.17122 10.5322 7.16211H1.20801C1.04395 7.17122 0.904948 7.23047 0.791016 7.33984C0.677083 7.44922 0.620117 7.58594 0.620117 7.75C0.620117 7.91406 0.677083 8.05078 0.791016 8.16016C0.904948 8.26953 1.04395 8.32878 1.20801 8.33789ZM6.62207 10.8398C6.5127 10.9583 6.45801 11.0951 6.45801 11.25C6.45801 11.4049 6.51725 11.5394 6.63574 11.6533C6.75423 11.7673 6.88867 11.8242 7.03906 11.8242C7.18945 11.8242 7.32389 11.7695 7.44238 11.6602L10.9424 8.16016C11.0609 8.04167 11.1201 7.90495 11.1201 7.75C11.1201 7.59505 11.0609 7.45833 10.9424 7.33984L7.44238 3.83984C7.32389 3.73047 7.18945 3.67578 7.03906 3.67578C6.88867 3.67578 6.75423 3.73275 6.63574 3.84668C6.51725 3.96061 6.45801 4.09505 6.45801 4.25C6.45801 4.40495 6.5127 4.54167 6.62207 4.66016L9.71191 7.75L6.62207 10.8398Z" fill="#262B35"/>
</g>
<defs>
<clipPath id="clip0_1_3109">
<rect width="14" height="15.2" fill="white" transform="matrix(1 0 0 -1 0.620117 15.35)"/>
</clipPath>
</defs>
</svg>
