<svg width="16" height="17" viewBox="0 0 16 17" fill="none" xmlns="http://www.w3.org/2000/svg">
<g clip-path="url(#clip0_1_3444)">
<path d="M0.661865 9.17188H11.3181C11.5056 9.16146 11.6645 9.09375 11.7947 8.96875C11.9249 8.84375 11.99 8.6875 11.99 8.5C11.99 8.3125 11.9249 8.15625 11.7947 8.03125C11.6645 7.90625 11.5056 7.83854 11.3181 7.82812H0.661865C0.474365 7.83854 0.315511 7.90625 0.185303 8.03125C0.0550944 8.15625 -0.0100098 8.3125 -0.0100098 8.5C-0.0100098 8.6875 0.0550944 8.84375 0.185303 8.96875C0.315511 9.09375 0.474365 9.16146 0.661865 9.17188ZM6.84937 12.0312C6.72437 12.1667 6.66187 12.3229 6.66187 12.5C6.66187 12.6771 6.72957 12.8307 6.86499 12.9609C7.00041 13.0911 7.15405 13.1562 7.32593 13.1562C7.4978 13.1562 7.65145 13.0938 7.78687 12.9688L11.7869 8.96875C11.9223 8.83333 11.99 8.67708 11.99 8.5C11.99 8.32292 11.9223 8.16667 11.7869 8.03125L7.78687 4.03125C7.65145 3.90625 7.4978 3.84375 7.32593 3.84375C7.15405 3.84375 7.00041 3.90885 6.86499 4.03906C6.72957 4.16927 6.66187 4.32292 6.66187 4.5C6.66187 4.67708 6.72437 4.83333 6.84937 4.96875L10.3806 8.5L6.84937 12.0312Z" fill="white"/>
</g>
<defs>
<clipPath id="clip0_1_3444">
<rect width="16" height="16" fill="white" transform="matrix(1 0 0 -1 -0.0100098 16.5)"/>
</clipPath>
</defs>
</svg>
